<?xml version="1.0" encoding="utf-8"?>
<!-- Generator: Adobe Illustrator 16.0.0, SVG Export Plug-In . SVG Version: 6.00 Build 0)  -->
<!DOCTYPE svg PUBLIC "-//W3C//DTD SVG 1.1//EN" "http://www.w3.org/Graphics/SVG/1.1/DTD/svg11.dtd">
<svg version="1.1" id="图层_1" xmlns="http://www.w3.org/2000/svg" xmlns:xlink="http://www.w3.org/1999/xlink" x="0px" y="0px"
	 width="100px" height="100px" viewBox="0 0 100 100" enable-background="new 0 0 100 100" xml:space="preserve">
<circle fill="#E74C3C" cx="50" cy="50" r="50"/>
<circle fill="#C0392B" cx="50.066" cy="49.91" r="33"/>
<circle fill="#FFFFFF" cx="50.5" cy="50.634" r="25"/>
<path fill="#C0392B" d="M32.144,49.992c-0.447-0.074-0.874-0.203-1.28-0.388c-0.406-0.185-0.749-0.407-1.029-0.667l0.56-0.811
	c0.047-0.066,0.11-0.122,0.189-0.166c0.08-0.045,0.164-0.067,0.254-0.067c0.093,0,0.188,0.024,0.286,0.073l0.317,0.178l0.376,0.213
	c0.136,0.072,0.291,0.131,0.466,0.178l0.215-2.204c-0.28-0.078-0.558-0.169-0.833-0.275c-0.276-0.105-0.525-0.248-0.746-0.427
	c-0.222-0.18-0.401-0.408-0.54-0.685c-0.138-0.277-0.207-0.624-0.207-1.042c0-0.308,0.062-0.608,0.187-0.901
	c0.124-0.292,0.306-0.556,0.545-0.79c0.239-0.234,0.533-0.426,0.883-0.576c0.35-0.15,0.75-0.226,1.201-0.226l0.064-0.658
	c0.012-0.11,0.06-0.21,0.146-0.299c0.086-0.089,0.196-0.133,0.333-0.133h0.665l-0.117,1.148c0.42,0.078,0.781,0.203,1.084,0.376
	c0.303,0.173,0.56,0.358,0.77,0.557l-0.443,0.647c-0.066,0.097-0.133,0.168-0.201,0.213c-0.068,0.045-0.149,0.067-0.242,0.067
	l-0.21-0.041l-0.256-0.102l-0.3-0.131l-0.341-0.122L33.736,45l0.56,0.178c0.187,0.064,0.366,0.138,0.539,0.222
	s0.334,0.18,0.484,0.289c0.15,0.109,0.28,0.237,0.391,0.385c0.111,0.148,0.197,0.318,0.26,0.51c0.062,0.192,0.093,0.411,0.093,0.656
	c0,0.369-0.062,0.716-0.187,1.041c-0.125,0.325-0.307,0.611-0.548,0.86c-0.241,0.249-0.536,0.452-0.886,0.609
	c-0.35,0.158-0.75,0.254-1.201,0.289l-0.07,0.729c-0.012,0.108-0.061,0.207-0.146,0.295s-0.196,0.131-0.333,0.131h-0.665
	L32.144,49.992z M31.876,43.736c0,0.229,0.073,0.415,0.219,0.557s0.337,0.261,0.574,0.358l0.175-1.761
	c-0.179,0.027-0.33,0.067-0.452,0.12c-0.123,0.052-0.222,0.116-0.297,0.189c-0.076,0.074-0.131,0.156-0.167,0.248
	C31.894,43.539,31.876,43.635,31.876,43.736z M34.348,47.508c0-0.221-0.071-0.398-0.212-0.53c-0.142-0.132-0.33-0.243-0.563-0.333
	l-0.187,1.924C34.027,48.457,34.348,48.103,34.348,47.508z"/>
<g enable-background="new    ">
	<path fill="#C0392B" d="M57.507,50.922c0,1.754-0.188,3.276-0.563,4.561c-0.377,1.287-0.899,2.353-1.566,3.197
		s-1.456,1.475-2.369,1.887c-0.914,0.414-1.904,0.621-2.97,0.621s-2.051-0.207-2.955-0.621c-0.905-0.412-1.688-1.042-2.35-1.887
		c-0.661-0.845-1.178-1.91-1.55-3.197c-0.372-1.284-0.558-2.805-0.558-4.561c0-1.755,0.186-3.274,0.558-4.56
		c0.372-1.286,0.889-2.352,1.55-3.196c0.662-0.844,1.445-1.471,2.35-1.88c0.904-0.409,1.889-0.613,2.955-0.613
		s2.056,0.204,2.97,0.613c0.913,0.409,1.702,1.036,2.369,1.88s1.188,1.912,1.566,3.196C57.318,47.647,57.507,49.167,57.507,50.922z
		 M53.098,50.922c0-1.386-0.086-2.523-0.261-3.409s-0.406-1.582-0.697-2.089c-0.288-0.504-0.616-0.852-0.984-1.04
		c-0.368-0.189-0.74-0.282-1.117-0.282s-0.745,0.093-1.108,0.282c-0.363,0.188-0.684,0.536-0.965,1.04
		c-0.28,0.505-0.504,1.202-0.674,2.089c-0.171,0.888-0.255,2.023-0.255,3.409c0,1.397,0.084,2.536,0.255,3.417
		c0.17,0.883,0.395,1.577,0.674,2.089c0.281,0.508,0.602,0.858,0.965,1.046c0.361,0.188,0.731,0.283,1.108,0.283
		s0.749-0.095,1.117-0.283c0.368-0.188,0.696-0.538,0.984-1.046c0.291-0.512,0.522-1.206,0.697-2.089
		C53.011,53.458,53.098,52.319,53.098,50.922z"/>
</g>
<circle fill="none" stroke="#FFFFFF" stroke-width="3" stroke-miterlimit="10" stroke-dasharray="6,6" cx="49.893" cy="50.551" r="29"/>
</svg>
