<?xml version="1.0" encoding="utf-8"?>
<!-- Generator: Adobe Illustrator 16.0.0, SVG Export Plug-In . SVG Version: 6.00 Build 0)  -->
<!DOCTYPE svg PUBLIC "-//W3C//DTD SVG 1.1//EN" "http://www.w3.org/Graphics/SVG/1.1/DTD/svg11.dtd">
<svg version="1.1" id="图层_1" xmlns="http://www.w3.org/2000/svg" xmlns:xlink="http://www.w3.org/1999/xlink" x="0px" y="0px"
	 width="100px" height="100px" viewBox="0 0 100 100" enable-background="new 0 0 100 100" xml:space="preserve">
<path fill="#E28E13" d="M23.25,79L0,67V32.656L51.75,7L75,19v34.5L23.25,79z"/>
<path fill="#C1711A" d="M0,64.555v2.982l23.193,11.932l51.622-25.355V51.13L23.193,76.486L0,64.555z M0,59.334v2.982l23.193,11.933
	l51.622-25.355V45.91L23.193,71.266L0,59.334z M0,48.893v2.983l23.193,11.933l51.622-25.355V35.47L23.193,60.825L0,48.893z
	 M0,54.113v2.982l23.193,11.932l51.622-25.355v-2.983L23.193,66.046L0,54.113z M0,43.673v2.983l23.193,11.932l51.622-25.356V30.25
	L23.193,55.605L0,43.673z M23.251,45.135L0,33.084v3.013l23.251,12.05L75.003,22.54v-3.013L23.251,45.135z M0,38.453v2.983
	l23.251,11.932l51.752-25.356v-2.983L23.251,50.385L0,38.453z"/>
<path fill="#E28E13" d="M48.133,91.884L24.998,79.951V50.646l51.495-25.354L100,37.299v29L48.133,91.884z"/>
<path fill="#C1711A" d="M25,77.085v2.983L48.25,92L100,66.645v-2.983L48.25,89.018L25,77.085z M25,71.865v2.982L48.25,86.78
	L100,61.424v-2.982L48.25,83.796L25,71.865z M25,61.424v2.983l23.25,11.932L100,50.982V48L48.25,73.355L25,61.424z M25,66.645v2.982
	l23.25,11.934L100,56.204v-2.983L48.25,78.576L25,66.645z M25,56.204v2.983l23.25,11.932L100,45.763V42.78L48.25,68.136L25,56.204z
	 M48.25,62.57L25,50.641v2.982l23.25,11.932L100,40.199v-2.983L48.25,62.57z"/>
<path opacity="0.1" enable-background="new    " d="M23.193,45.165L0,33.25v34.344L23.25,79.5L23.193,45.165z"/>
<path opacity="0.1" enable-background="new    " d="M48.193,62.6L25,50.686v29.291l23.25,11.906L48.193,62.6z"/>
<path fill="#EADF11" d="M59.996,50.609l-11.363,5.459l-9.702-5.221l13.137-6.436c0,0-0.911-2.62-0.354-3.019
	c-0.01,0.047-19.386,9.692-19.386,9.692l16.583,8.291l17.048-8.522c0,0-1.669,0.055-3.147-0.006
	C61.311,50.787,59.996,50.609,59.996,50.609z M73.441,47.113L93.5,37.5l-16.299-8.849c0,0-7.878,3.939-17.032,8.515
	c2.582-0.133,4.697,0.978,4.697,0.978l12.126-5.94l10.447,5.221l-13.989,6.72L73.441,47.113L73.441,47.113z"/>
<path fill="#EADF11" d="M64.234,46.958c0.716,0.015,1.379-0.086,1.99-0.302l-3.529-1.87l-0.299,0.078l-0.385,0.123
	c-0.523,0.157-1.059,0.302-1.609,0.433s-1.111,0.213-1.68,0.246c-0.57,0.033-1.138-0.001-1.703-0.101s-1.129-0.299-1.692-0.597
	c-0.574-0.304-0.974-0.63-1.196-0.977c-0.223-0.348-0.306-0.694-0.25-1.04c0.057-0.346,0.236-0.686,0.538-1.019
	c0.302-0.334,0.687-0.641,1.151-0.924l-1.301-0.689l0.981-0.52l1.3,0.689c0.555-0.235,1.133-0.425,1.734-0.57
	s1.211-0.23,1.831-0.255c0.62-0.024,1.249,0.022,1.887,0.137c0.638,0.116,1.267,0.319,1.886,0.612l-2.361,1.251
	c-0.461-0.233-0.982-0.362-1.563-0.389c-0.581-0.026-1.06,0.061-1.437,0.261l2.988,1.584l0.51-0.162l0.559-0.171
	c1.045-0.315,1.956-0.502,2.73-0.562c0.775-0.058,1.449-0.048,2.021,0.031c0.571,0.08,1.056,0.205,1.455,0.374
	c0.399,0.171,0.739,0.331,1.021,0.48c0.248,0.131,0.5,0.329,0.754,0.594c0.256,0.265,0.406,0.576,0.449,0.934
	c0.045,0.358-0.059,0.753-0.309,1.184c-0.251,0.431-0.764,0.882-1.538,1.353l1.435,0.761l-0.98,0.52l-1.436-0.761
	c-1.332,0.61-2.689,0.918-4.074,0.924c-1.385,0.007-2.797-0.313-4.237-0.959l2.344-1.242C62.848,46.763,63.52,46.943,64.234,46.958z
	 M67.686,45.729c0.143-0.153,0.232-0.311,0.27-0.474s0.012-0.326-0.074-0.489s-0.264-0.316-0.535-0.459
	c-0.438-0.233-0.904-0.335-1.395-0.308c-0.491,0.028-1.154,0.167-1.988,0.418l3.242,1.718
	C67.382,46.018,67.543,45.883,67.686,45.729z M57.08,42.391c-0.121,0.124-0.195,0.255-0.221,0.394
	c-0.025,0.139,0.008,0.277,0.099,0.413c0.091,0.137,0.255,0.268,0.492,0.393c0.372,0.197,0.774,0.288,1.21,0.272
	c0.436-0.016,0.98-0.133,1.637-0.349l-2.753-1.458C57.355,42.155,57.201,42.267,57.08,42.391z"/>
<path fill="#EADF11" d="M34.583,32.609L23.22,38.068l-9.702-5.22l13.138-6.436c0,0-0.913-2.62-0.354-3.019
	c-0.01,0.047-19.386,9.692-19.386,9.692l16.583,8.291l17.048-8.523c0,0-1.669,0.055-3.148-0.006
	C35.897,32.787,34.583,32.609,34.583,32.609z M48.029,29.113L68.087,19.5l-16.299-8.849c0,0-7.878,3.939-17.032,8.515
	c2.582-0.133,4.697,0.978,4.697,0.978l12.126-5.94l10.448,5.221l-13.989,6.72L48.029,29.113z"/>
<path fill="#EADF11" d="M38.822,28.958c0.715,0.015,1.378-0.085,1.99-0.302l-3.53-1.87l-0.3,0.078l-0.384,0.123
	c-0.523,0.157-1.06,0.302-1.61,0.433c-0.551,0.131-1.111,0.213-1.68,0.246c-0.569,0.033-1.136-0.001-1.702-0.101
	s-1.13-0.299-1.693-0.597c-0.574-0.304-0.973-0.63-1.196-0.977c-0.223-0.348-0.306-0.694-0.25-1.04
	c0.057-0.346,0.236-0.685,0.538-1.018c0.302-0.334,0.686-0.641,1.151-0.924l-1.3-0.689l0.981-0.52l1.3,0.689
	c0.555-0.235,1.133-0.425,1.734-0.57s1.211-0.23,1.831-0.255c0.62-0.024,1.249,0.022,1.887,0.137
	c0.638,0.116,1.267,0.319,1.886,0.612l-2.361,1.251c-0.461-0.233-0.983-0.362-1.564-0.389c-0.581-0.026-1.06,0.061-1.437,0.261
	l2.989,1.584l0.509-0.163l0.559-0.171c1.045-0.315,1.956-0.502,2.731-0.562c0.775-0.059,1.449-0.048,2.02,0.031
	c0.571,0.08,1.056,0.205,1.455,0.375c0.399,0.171,0.74,0.331,1.021,0.48c0.248,0.131,0.499,0.329,0.754,0.594
	c0.255,0.265,0.405,0.576,0.449,0.934c0.045,0.358-0.059,0.753-0.309,1.184c-0.251,0.431-0.764,0.882-1.538,1.353l1.435,0.761
	l-0.981,0.52l-1.435-0.761c-1.332,0.61-2.69,0.918-4.075,0.924c-1.385,0.007-2.797-0.313-4.237-0.959l2.344-1.242
	C37.434,28.763,38.107,28.943,38.822,28.958L38.822,28.958z M42.272,27.729c0.143-0.153,0.233-0.311,0.269-0.474
	c0.037-0.163,0.012-0.326-0.074-0.489c-0.086-0.163-0.264-0.316-0.535-0.46c-0.439-0.233-0.904-0.335-1.395-0.308l-1.988,0.419
	l3.242,1.718C41.969,28.018,42.129,27.883,42.272,27.729z M31.667,24.391c-0.121,0.124-0.195,0.255-0.22,0.394
	c-0.026,0.139,0.007,0.277,0.098,0.413c0.092,0.137,0.255,0.268,0.492,0.393c0.372,0.197,0.775,0.288,1.211,0.272
	c0.435-0.016,0.981-0.133,1.637-0.349l-2.753-1.458C31.943,24.155,31.788,24.267,31.667,24.391z"/>
</svg>
